<?xml version="1.0" encoding="UTF-8" standalone="no"?>
<!-- Created with Inkscape (http://www.inkscape.org/) -->

<svg
   xmlns:dc="http://purl.org/dc/elements/1.1/"
   xmlns:cc="http://creativecommons.org/ns#"
   xmlns:rdf="http://www.w3.org/1999/02/22-rdf-syntax-ns#"
   xmlns:svg="http://www.w3.org/2000/svg"
   xmlns="http://www.w3.org/2000/svg"
   xmlns:sodipodi="http://sodipodi.sourceforge.net/DTD/sodipodi-0.dtd"
   xmlns:inkscape="http://www.inkscape.org/namespaces/inkscape"
   width="744.09448819"
   height="1052.3622047"
   id="svg2"
   version="1.1"
   inkscape:version="0.48.2 r9819"
   sodipodi:docname="w.svg">
  <defs
     id="defs4" />
  <sodipodi:namedview
     id="base"
     pagecolor="#ffffff"
     bordercolor="#666666"
     borderopacity="1.0"
     inkscape:pageopacity="0.0"
     inkscape:pageshadow="2"
     inkscape:zoom="4.4905214"
     inkscape:cx="189.41796"
     inkscape:cy="795.40039"
     inkscape:document-units="px"
     inkscape:current-layer="layer1"
     showgrid="true"
     inkscape:window-width="1304"
     inkscape:window-height="746"
     inkscape:window-x="54"
     inkscape:window-y="-8"
     inkscape:window-maximized="1"
     inkscape:object-nodes="false"
     inkscape:snap-smooth-nodes="false"
     inkscape:object-paths="true"
     inkscape:snap-global="true"
     inkscape:snap-nodes="true">
    <inkscape:grid
       type="xygrid"
       id="grid2985" />
  </sodipodi:namedview>
  <metadata
     id="metadata7">
    <rdf:RDF>
      <cc:Work
         rdf:about="">
        <dc:format>image/svg+xml</dc:format>
        <dc:type
           rdf:resource="http://purl.org/dc/dcmitype/StillImage" />
        <dc:title></dc:title>
      </cc:Work>
    </rdf:RDF>
  </metadata>
  <g
     inkscape:label="Layer 1"
     inkscape:groupmode="layer"
     id="layer1">
    <path
       style="fill:none;stroke:#000000;stroke-width:0.88548911px;stroke-linecap:butt;stroke-linejoin:miter;stroke-opacity:1"
       d="m 330.30303,101.11218 c -3.42018,0.0951 -4.49765,0.85168 -6.9697,11.25 -2.47204,10.39832 -9.25806,39.53992 -10.45454,45 -1.19648,5.46008 -1.88268,10.16042 -3.48485,0 -1.60217,-10.16042 -5.72915,-35.75437 -6.9697,-45 -1.24055,-9.24564 0,-11.25 -10.45454,-11.25 -10.45455,0 -27.87879,0 -27.87879,0 0,0 -3.48485,0 0,16.875 3.48485,16.875 20.90909,84.375 20.90909,84.375 2.47205,10.39832 3.54952,11.15494 6.9697,11.25 3.42017,0.0951 13.93939,0 20.90909,0 10.45454,0 10.95683,-3.10663 13.93939,-11.25 3.42305,-9.34601 8.36364,-23.625 13.9394,-39.375 0.69292,-1.95731 2.85149,-1.97561 3.48484,0 5.57576,15.75 10.51635,30.02899 13.9394,39.375 2.98256,8.14337 3.48485,11.25 13.93939,11.25 6.9697,0 17.48892,0.0951 20.90909,0 3.42018,-0.0951 4.49765,-0.85168 6.9697,-11.25 0,0 17.42424,-67.5 20.90909,-84.375 3.48485,-16.875 0,-16.875 0,-16.875 0,0 -17.42424,0 -27.87879,0 -10.45454,0 -9.21399,2.00436 -10.45454,11.25 -1.24055,9.24563 -5.36753,34.83958 -6.9697,45 -1.60217,10.16042 -2.28837,5.46008 -3.48485,0 -1.19648,-5.46008 -7.9825,-34.60168 -10.45454,-45 -2.47205,-10.39832 -3.54952,-11.15499 -6.9697,-11.25 -6.9697,0 -20.97376,-0.0951 -24.39394,0 z"
       id="path3005-7-4-0"
       inkscape:connector-curvature="0"
       sodipodi:nodetypes="sssssscscscsscscscscssssscs" />
  </g>
</svg>
